<svg width="584" height="584" xmlns="http://www.w3.org/2000/svg" xmlns:xlink="http://www.w3.org/1999/xlink" xml:space="preserve" overflow="hidden"><defs><clipPath id="clip0"><rect x="348" y="68" width="584" height="584"/></clipPath></defs><g clip-path="url(#clip0)" transform="translate(-348 -68)"><path d="M831.722 375.05C831.497 374.405 831.333 373.748 831.065 373.116 818.899 344.341 794.206 304.277 798.161 269.863L798.24 269.45C800.175 259.52 797.047 249.277 789.893 242.123L788.135 240.371C805.12 227.712 818.704 220.254 826.57 220.254 826.57 220.254 826.728 183.754 826.661 183.754 810.041 183.754 787.509 195.58 762.318 214.548L761.417 213.647 761.417 213.647 755.48 207.71C748.396 200.614 738.265 197.472 728.409 199.315L727.04 199.564C724.765 199.799 722.478 199.915 720.19 199.911 687.602 199.911 651.218 177.835 624.536 166.58 623.897 166.313 623.246 166.148 622.602 165.923 596.364 156.387 566.972 163.215 547.625 183.34L547.247 183.742C531.832 199.844 532.39 225.395 548.492 240.81 549.499 241.774 550.556 242.686 551.658 243.541L498.696 296.502C451.551 343.648 438.745 421.551 468.888 477.7 471.066 481.51 471.568 486.051 470.275 490.244 465.577 503.792 472.752 518.583 486.3 523.281 491.235 524.992 496.57 525.175 501.61 523.806 505.973 522.618 510.633 523.279 514.495 525.631 536.743 538.751 562.147 545.559 587.975 545.323 630.315 545.314 670.954 528.66 701.125 498.956L754.105 445.976C767.721 463.583 793.034 466.818 810.641 453.202 811.771 452.327 812.855 451.394 813.886 450.404L814.288 450.027C834.433 430.693 841.27 401.29 831.722 375.05ZM814.592 198.183 814.519 210.545C802.417 215.644 791.083 222.4 780.841 230.62L779.418 231.678 770.999 223.259C784.126 212.667 798.836 204.205 814.592 198.183ZM692.542 490.348C647.641 535.243 572.195 546.15 520.767 515.21 514.076 511.142 506.004 510.011 498.453 512.083 491.101 514.087 483.517 509.752 481.513 502.401 480.78 499.71 480.879 496.862 481.797 494.229 484.195 486.83 483.41 478.767 479.631 471.97 451.903 420.353 463.815 348.63 507.298 305.128L561.914 250.5C597.644 275.981 631.188 304.395 662.198 335.448 693.255 366.456 721.671 400 747.152 435.731ZM805.905 441.219 805.509 441.596C794.254 452.387 776.382 452.01 765.591 440.756 764.34 439.451 763.217 438.029 762.239 436.51 731.785 388.701 680.722 336.743 670.8 326.84 660.878 316.936 608.975 265.86 561.136 235.407 554.069 230.908 549.395 223.474 548.403 215.156 547.365 206.724 550.173 198.272 556.05 192.137L556.397 191.778C567.361 180.28 582.57 173.797 598.457 173.85 605.318 173.847 612.126 175.052 618.568 177.409 618.939 177.536 619.317 177.658 619.688 177.774L619.797 177.774C625.795 180.304 632.432 183.468 639.465 186.814 664.315 198.646 692.481 212.059 720.184 212.059 722.888 212.06 725.591 211.924 728.281 211.652L728.774 211.603 729.261 211.512 730.63 211.256C736.543 210.156 742.619 212.041 746.872 216.293L753.71 223.125 761.186 230.601 761.186 230.601 769.587 238.996 769.587 238.996 779.533 248.949 781.292 250.707C785.581 254.998 787.457 261.14 786.298 267.095L786.219 267.509 786.128 267.977 786.073 268.446C782.575 298.862 798.24 331.712 810.814 358.157 814.166 365.189 817.323 371.826 819.769 377.623L819.872 377.952C819.988 378.323 820.109 378.7 820.286 379.169 828.173 400.876 822.537 425.193 805.905 441.219Z"/></g></svg>